<svg width="46" height="46" viewBox="0 0 46 46" fill="none" xmlns="http://www.w3.org/2000/svg">
<rect width="46" height="46" fill="#F7941D"/>
<path d="M36.6578 35.0085L28.6954 27.046C30.2378 25.1409 31.1664 22.72 31.1664 20.0834C31.1664 13.9724 26.1941 9 20.0832 9C13.9722 9 9 13.9723 9 20.0833C9 26.1943 13.9723 31.1666 20.0832 31.1666C22.7198 31.1666 25.1407 30.238 27.0458 28.6957L35.0082 36.6581C35.2357 36.8856 35.5344 37 35.8331 37C36.1318 37 36.4304 36.8856 36.6579 36.6581C37.114 36.202 37.114 35.4646 36.6578 35.0085ZM20.0832 28.8333C15.2579 28.8333 11.3333 24.9086 11.3333 20.0833C11.3333 15.2579 15.2579 11.3333 20.0832 11.3333C24.9085 11.3333 28.8331 15.2579 28.8331 20.0833C28.8331 24.9086 24.9085 28.8333 20.0832 28.8333Z" fill="white"/>
</svg>
