<svg width="25" height="19" viewBox="0 0 25 19" fill="none" xmlns="http://www.w3.org/2000/svg">
<path d="M24.4849 2.84029C24.1968 1.72965 23.3524 0.854145 22.2815 0.555084C20.3252 0 12.4997 0 12.4997 0C12.4997 0 4.67454 0 2.71821 0.534038C1.66794 0.832783 0.802919 1.72981 0.514833 2.84029C0 4.86885 0 9.07581 0 9.07581C0 9.07581 0 13.304 0.514833 15.3113C0.803224 16.4218 1.64734 17.2973 2.71836 17.5964C4.69514 18.1516 12.5 18.1516 12.5 18.1516C12.5 18.1516 20.3252 18.1516 22.2815 17.6176C23.3526 17.3187 24.1968 16.4432 24.4852 15.3327C24.9999 13.304 24.9999 9.09717 24.9999 9.09717C24.9999 9.09717 25.0205 4.86885 24.4849 2.84029ZM10.0083 12.9623V5.18927L16.5155 9.07581L10.0083 12.9623Z" fill="black"/>
</svg>
